G04 #@! TF.GenerationSoftware,KiCad,Pcbnew,(5.1.9)-1*
G04 #@! TF.CreationDate,2021-05-04T15:06:36+02:00*
G04 #@! TF.ProjectId,ZX81 Composite,5a583831-2043-46f6-9d70-6f736974652e,rev?*
G04 #@! TF.SameCoordinates,Original*
G04 #@! TF.FileFunction,Soldermask,Top*
G04 #@! TF.FilePolarity,Negative*
%FSLAX46Y46*%
G04 Gerber Fmt 4.6, Leading zero omitted, Abs format (unit mm)*
G04 Created by KiCad (PCBNEW (5.1.9)-1) date 2021-05-04 15:06:36*
%MOMM*%
%LPD*%
G01*
G04 APERTURE LIST*
%ADD10O,1.602000X1.002000*%
%ADD11O,1.702000X1.702000*%
%ADD12C,1.702000*%
%ADD13C,1.502000*%
%ADD14O,1.502000X1.502000*%
G04 APERTURE END LIST*
D10*
X63220600Y-61290200D03*
X63220600Y-60020200D03*
G36*
G01*
X62470600Y-62059200D02*
X63970600Y-62059200D01*
G75*
G02*
X64021600Y-62110200I0J-51000D01*
G01*
X64021600Y-63010200D01*
G75*
G02*
X63970600Y-63061200I-51000J0D01*
G01*
X62470600Y-63061200D01*
G75*
G02*
X62419600Y-63010200I0J51000D01*
G01*
X62419600Y-62110200D01*
G75*
G02*
X62470600Y-62059200I51000J0D01*
G01*
G37*
D11*
X64058800Y-44907200D03*
G36*
G01*
X55587800Y-45707200D02*
X55587800Y-44107200D01*
G75*
G02*
X55638800Y-44056200I51000J0D01*
G01*
X57238800Y-44056200D01*
G75*
G02*
X57289800Y-44107200I0J-51000D01*
G01*
X57289800Y-45707200D01*
G75*
G02*
X57238800Y-45758200I-51000J0D01*
G01*
X55638800Y-45758200D01*
G75*
G02*
X55587800Y-45707200I0J51000D01*
G01*
G37*
G36*
G01*
X55587800Y-48653600D02*
X55587800Y-47053600D01*
G75*
G02*
X55638800Y-47002600I51000J0D01*
G01*
X57238800Y-47002600D01*
G75*
G02*
X57289800Y-47053600I0J-51000D01*
G01*
X57289800Y-48653600D01*
G75*
G02*
X57238800Y-48704600I-51000J0D01*
G01*
X55638800Y-48704600D01*
G75*
G02*
X55587800Y-48653600I0J51000D01*
G01*
G37*
X64058800Y-47853600D03*
G36*
G01*
X55868000Y-63130800D02*
X55868000Y-61430800D01*
G75*
G02*
X55919000Y-61379800I51000J0D01*
G01*
X57619000Y-61379800D01*
G75*
G02*
X57670000Y-61430800I0J-51000D01*
G01*
X57670000Y-63130800D01*
G75*
G02*
X57619000Y-63181800I-51000J0D01*
G01*
X55919000Y-63181800D01*
G75*
G02*
X55868000Y-63130800I0J51000D01*
G01*
G37*
G36*
G01*
X55791800Y-57517400D02*
X55791800Y-55817400D01*
G75*
G02*
X55842800Y-55766400I51000J0D01*
G01*
X57542800Y-55766400D01*
G75*
G02*
X57593800Y-55817400I0J-51000D01*
G01*
X57593800Y-57517400D01*
G75*
G02*
X57542800Y-57568400I-51000J0D01*
G01*
X55842800Y-57568400D01*
G75*
G02*
X55791800Y-57517400I0J51000D01*
G01*
G37*
G36*
G01*
X55868000Y-52666000D02*
X55868000Y-50966000D01*
G75*
G02*
X55919000Y-50915000I51000J0D01*
G01*
X57619000Y-50915000D01*
G75*
G02*
X57670000Y-50966000I0J-51000D01*
G01*
X57670000Y-52666000D01*
G75*
G02*
X57619000Y-52717000I-51000J0D01*
G01*
X55919000Y-52717000D01*
G75*
G02*
X55868000Y-52666000I0J51000D01*
G01*
G37*
G36*
G01*
X84263800Y-62008400D02*
X85763800Y-62008400D01*
G75*
G02*
X85814800Y-62059400I0J-51000D01*
G01*
X85814800Y-62959400D01*
G75*
G02*
X85763800Y-63010400I-51000J0D01*
G01*
X84263800Y-63010400D01*
G75*
G02*
X84212800Y-62959400I0J51000D01*
G01*
X84212800Y-62059400D01*
G75*
G02*
X84263800Y-62008400I51000J0D01*
G01*
G37*
D10*
X85013800Y-59969400D03*
X85013800Y-61239400D03*
D12*
X87361400Y-46126400D03*
G36*
G01*
X84010400Y-46926400D02*
X84010400Y-45326400D01*
G75*
G02*
X84061400Y-45275400I51000J0D01*
G01*
X85661400Y-45275400D01*
G75*
G02*
X85712400Y-45326400I0J-51000D01*
G01*
X85712400Y-46926400D01*
G75*
G02*
X85661400Y-46977400I-51000J0D01*
G01*
X84061400Y-46977400D01*
G75*
G02*
X84010400Y-46926400I0J51000D01*
G01*
G37*
X75637400Y-45440600D03*
X70637400Y-45440600D03*
X82194400Y-53873400D03*
X87194400Y-53873400D03*
D13*
X79248000Y-48437800D03*
D14*
X79248000Y-53517800D03*
X79324200Y-61696600D03*
D13*
X79324200Y-56616600D03*
X67233800Y-45618400D03*
D14*
X67233800Y-50698400D03*
X63144400Y-56642000D03*
D13*
X63144400Y-51562000D03*
D12*
X75688200Y-50622200D03*
X70688200Y-50622200D03*
D11*
X67564000Y-54787800D03*
X75184000Y-62407800D03*
X70104000Y-54787800D03*
X72644000Y-62407800D03*
X72644000Y-54787800D03*
X70104000Y-62407800D03*
X75184000Y-54787800D03*
G36*
G01*
X68364000Y-63258800D02*
X66764000Y-63258800D01*
G75*
G02*
X66713000Y-63207800I0J51000D01*
G01*
X66713000Y-61607800D01*
G75*
G02*
X66764000Y-61556800I51000J0D01*
G01*
X68364000Y-61556800D01*
G75*
G02*
X68415000Y-61607800I0J-51000D01*
G01*
X68415000Y-63207800D01*
G75*
G02*
X68364000Y-63258800I-51000J0D01*
G01*
G37*
M02*
