M48
; DRILL file {KiCad (5.1.9)-1} date 05/20/21 18:11:02
; FORMAT={-:-/ absolute / inch / decimal}
; #@! TF.CreationDate,2021-05-20T18:11:02+02:00
; #@! TF.GenerationSoftware,Kicad,Pcbnew,(5.1.9)-1
; #@! TF.FileFunction,Plated,1,2,PTH
FMAT,2
INCH
T1C0.0157
T2C0.0236
T3C0.0276
T4C0.0315
T5C0.0394
%
G90
G05
T1
X2.356Y-2.355
X2.677Y-2.328
X2.795Y-2.234
X2.877Y-2.282
X2.983Y-2.244
X3.009Y-1.895
X3.244Y-2.257
T2
X2.489Y-2.363
X2.489Y-2.413
X2.489Y-2.463
X3.347Y-2.361
X3.347Y-2.411
X3.347Y-2.461
T3
X2.4846Y-2.0307
X2.4846Y-2.2307
X2.647Y-1.796
X2.647Y-1.996
X3.12Y-1.907
X3.12Y-2.107
X3.123Y-2.229
X3.123Y-2.429
T4
X2.222Y-1.768
X2.222Y-1.884
X2.522Y-1.768
X2.522Y-1.884
X2.66Y-2.157
X2.66Y-2.457
X2.76Y-2.157
X2.76Y-2.457
X2.781Y-1.789
X2.783Y-1.993
X2.86Y-2.157
X2.86Y-2.457
X2.96Y-2.157
X2.96Y-2.457
X2.9779Y-1.789
X2.9799Y-1.993
X3.236Y-2.121
X3.341Y-1.816
X3.4329Y-2.121
X3.4394Y-1.816
T5
X2.232Y-2.231
X2.235Y-2.04
X2.235Y-2.452
T0
M30
