G04 #@! TF.GenerationSoftware,KiCad,Pcbnew,(5.1.9)-1*
G04 #@! TF.CreationDate,2021-05-20T18:11:05+02:00*
G04 #@! TF.ProjectId,ZX81 Composite,5a583831-2043-46f6-9d70-6f736974652e,rev?*
G04 #@! TF.SameCoordinates,Original*
G04 #@! TF.FileFunction,Legend,Bot*
G04 #@! TF.FilePolarity,Positive*
%FSLAX46Y46*%
G04 Gerber Fmt 4.6, Leading zero omitted, Abs format (unit mm)*
G04 Created by KiCad (PCBNEW (5.1.9)-1) date 2021-05-20 18:11:05*
%MOMM*%
%LPD*%
G01*
G04 APERTURE LIST*
%ADD10C,0.200000*%
G04 APERTURE END LIST*
D10*
X81037733Y-42767304D02*
X80504400Y-42767304D01*
X81037733Y-43567304D01*
X80504400Y-43567304D01*
X80275828Y-42767304D02*
X79742495Y-43567304D01*
X79742495Y-42767304D02*
X80275828Y-43567304D01*
X79323447Y-43110161D02*
X79399638Y-43072066D01*
X79437733Y-43033971D01*
X79475828Y-42957780D01*
X79475828Y-42919685D01*
X79437733Y-42843495D01*
X79399638Y-42805400D01*
X79323447Y-42767304D01*
X79171066Y-42767304D01*
X79094876Y-42805400D01*
X79056780Y-42843495D01*
X79018685Y-42919685D01*
X79018685Y-42957780D01*
X79056780Y-43033971D01*
X79094876Y-43072066D01*
X79171066Y-43110161D01*
X79323447Y-43110161D01*
X79399638Y-43148257D01*
X79437733Y-43186352D01*
X79475828Y-43262542D01*
X79475828Y-43414923D01*
X79437733Y-43491114D01*
X79399638Y-43529209D01*
X79323447Y-43567304D01*
X79171066Y-43567304D01*
X79094876Y-43529209D01*
X79056780Y-43491114D01*
X79018685Y-43414923D01*
X79018685Y-43262542D01*
X79056780Y-43186352D01*
X79094876Y-43148257D01*
X79171066Y-43110161D01*
X78256780Y-43567304D02*
X78713923Y-43567304D01*
X78485352Y-43567304D02*
X78485352Y-42767304D01*
X78561542Y-42881590D01*
X78637733Y-42957780D01*
X78713923Y-42995876D01*
X76847257Y-43491114D02*
X76885352Y-43529209D01*
X76999638Y-43567304D01*
X77075828Y-43567304D01*
X77190114Y-43529209D01*
X77266304Y-43453019D01*
X77304400Y-43376828D01*
X77342495Y-43224447D01*
X77342495Y-43110161D01*
X77304400Y-42957780D01*
X77266304Y-42881590D01*
X77190114Y-42805400D01*
X77075828Y-42767304D01*
X76999638Y-42767304D01*
X76885352Y-42805400D01*
X76847257Y-42843495D01*
X76390114Y-43567304D02*
X76466304Y-43529209D01*
X76504400Y-43491114D01*
X76542495Y-43414923D01*
X76542495Y-43186352D01*
X76504400Y-43110161D01*
X76466304Y-43072066D01*
X76390114Y-43033971D01*
X76275828Y-43033971D01*
X76199638Y-43072066D01*
X76161542Y-43110161D01*
X76123447Y-43186352D01*
X76123447Y-43414923D01*
X76161542Y-43491114D01*
X76199638Y-43529209D01*
X76275828Y-43567304D01*
X76390114Y-43567304D01*
X75780590Y-43567304D02*
X75780590Y-43033971D01*
X75780590Y-43110161D02*
X75742495Y-43072066D01*
X75666304Y-43033971D01*
X75552019Y-43033971D01*
X75475828Y-43072066D01*
X75437733Y-43148257D01*
X75437733Y-43567304D01*
X75437733Y-43148257D02*
X75399638Y-43072066D01*
X75323447Y-43033971D01*
X75209161Y-43033971D01*
X75132971Y-43072066D01*
X75094876Y-43148257D01*
X75094876Y-43567304D01*
X74713923Y-43033971D02*
X74713923Y-43833971D01*
X74713923Y-43072066D02*
X74637733Y-43033971D01*
X74485352Y-43033971D01*
X74409161Y-43072066D01*
X74371066Y-43110161D01*
X74332971Y-43186352D01*
X74332971Y-43414923D01*
X74371066Y-43491114D01*
X74409161Y-43529209D01*
X74485352Y-43567304D01*
X74637733Y-43567304D01*
X74713923Y-43529209D01*
X73875828Y-43567304D02*
X73952019Y-43529209D01*
X73990114Y-43491114D01*
X74028209Y-43414923D01*
X74028209Y-43186352D01*
X73990114Y-43110161D01*
X73952019Y-43072066D01*
X73875828Y-43033971D01*
X73761542Y-43033971D01*
X73685352Y-43072066D01*
X73647257Y-43110161D01*
X73609161Y-43186352D01*
X73609161Y-43414923D01*
X73647257Y-43491114D01*
X73685352Y-43529209D01*
X73761542Y-43567304D01*
X73875828Y-43567304D01*
X73304400Y-43529209D02*
X73228209Y-43567304D01*
X73075828Y-43567304D01*
X72999638Y-43529209D01*
X72961542Y-43453019D01*
X72961542Y-43414923D01*
X72999638Y-43338733D01*
X73075828Y-43300638D01*
X73190114Y-43300638D01*
X73266304Y-43262542D01*
X73304400Y-43186352D01*
X73304400Y-43148257D01*
X73266304Y-43072066D01*
X73190114Y-43033971D01*
X73075828Y-43033971D01*
X72999638Y-43072066D01*
X72618685Y-43567304D02*
X72618685Y-43033971D01*
X72618685Y-42767304D02*
X72656780Y-42805400D01*
X72618685Y-42843495D01*
X72580590Y-42805400D01*
X72618685Y-42767304D01*
X72618685Y-42843495D01*
X72352019Y-43033971D02*
X72047257Y-43033971D01*
X72237733Y-42767304D02*
X72237733Y-43453019D01*
X72199638Y-43529209D01*
X72123447Y-43567304D01*
X72047257Y-43567304D01*
X71475828Y-43529209D02*
X71552019Y-43567304D01*
X71704400Y-43567304D01*
X71780590Y-43529209D01*
X71818685Y-43453019D01*
X71818685Y-43148257D01*
X71780590Y-43072066D01*
X71704400Y-43033971D01*
X71552019Y-43033971D01*
X71475828Y-43072066D01*
X71437733Y-43148257D01*
X71437733Y-43224447D01*
X71818685Y-43300638D01*
X69913923Y-42729209D02*
X70599638Y-43757780D01*
X68580590Y-43567304D02*
X68847257Y-43186352D01*
X69037733Y-43567304D02*
X69037733Y-42767304D01*
X68732971Y-42767304D01*
X68656780Y-42805400D01*
X68618685Y-42843495D01*
X68580590Y-42919685D01*
X68580590Y-43033971D01*
X68618685Y-43110161D01*
X68656780Y-43148257D01*
X68732971Y-43186352D01*
X69037733Y-43186352D01*
X67932971Y-43529209D02*
X68009161Y-43567304D01*
X68161542Y-43567304D01*
X68237733Y-43529209D01*
X68275828Y-43453019D01*
X68275828Y-43148257D01*
X68237733Y-43072066D01*
X68161542Y-43033971D01*
X68009161Y-43033971D01*
X67932971Y-43072066D01*
X67894876Y-43148257D01*
X67894876Y-43224447D01*
X68275828Y-43300638D01*
X67628209Y-43033971D02*
X67437733Y-43567304D01*
X67247257Y-43033971D01*
X66942495Y-43491114D02*
X66904400Y-43529209D01*
X66942495Y-43567304D01*
X66980590Y-43529209D01*
X66942495Y-43491114D01*
X66942495Y-43567304D01*
X65990114Y-43338733D02*
X65609161Y-43338733D01*
X66066304Y-43567304D02*
X65799638Y-42767304D01*
X65532971Y-43567304D01*
M02*
