G04 #@! TF.GenerationSoftware,KiCad,Pcbnew,(5.1.9)-1*
G04 #@! TF.CreationDate,2021-05-04T15:06:36+02:00*
G04 #@! TF.ProjectId,ZX81 Composite,5a583831-2043-46f6-9d70-6f736974652e,rev?*
G04 #@! TF.SameCoordinates,Original*
G04 #@! TF.FileFunction,Legend,Top*
G04 #@! TF.FilePolarity,Positive*
%FSLAX46Y46*%
G04 Gerber Fmt 4.6, Leading zero omitted, Abs format (unit mm)*
G04 Created by KiCad (PCBNEW (5.1.9)-1) date 2021-05-04 15:06:36*
%MOMM*%
%LPD*%
G01*
G04 APERTURE LIST*
%ADD10C,0.120000*%
%ADD11C,0.150000*%
%ADD12C,0.125000*%
G04 APERTURE END LIST*
D10*
X65070600Y-63090200D02*
X65070600Y-59490200D01*
X65059078Y-63128678D02*
G75*
G02*
X60620600Y-61290200I-1838478J1838478D01*
G01*
X65059078Y-59451722D02*
G75*
G03*
X60620600Y-61290200I-1838478J-1838478D01*
G01*
X58848800Y-43847200D02*
X58848800Y-45967200D01*
X63078800Y-44907200D02*
X62308800Y-44907200D01*
X57418800Y-44907200D02*
X58188800Y-44907200D01*
X62308800Y-43847200D02*
X58188800Y-43847200D01*
X62308800Y-45967200D02*
X62308800Y-43847200D01*
X58188800Y-45967200D02*
X62308800Y-45967200D01*
X58188800Y-43847200D02*
X58188800Y-45967200D01*
X58188800Y-46793600D02*
X58188800Y-48913600D01*
X58188800Y-48913600D02*
X62308800Y-48913600D01*
X62308800Y-48913600D02*
X62308800Y-46793600D01*
X62308800Y-46793600D02*
X58188800Y-46793600D01*
X57418800Y-47853600D02*
X58188800Y-47853600D01*
X63078800Y-47853600D02*
X62308800Y-47853600D01*
X58848800Y-46793600D02*
X58848800Y-48913600D01*
X55439000Y-63610800D02*
X58099000Y-63610800D01*
X55439000Y-63550800D02*
X55439000Y-63610800D01*
X58099000Y-63550800D02*
X58099000Y-63610800D01*
X55439000Y-63550800D02*
X58099000Y-63550800D01*
X55439000Y-62280800D02*
X55439000Y-60950800D01*
X55439000Y-60950800D02*
X56769000Y-60950800D01*
X55362800Y-55337400D02*
X56692800Y-55337400D01*
X55362800Y-56667400D02*
X55362800Y-55337400D01*
X55362800Y-57937400D02*
X58022800Y-57937400D01*
X58022800Y-57937400D02*
X58022800Y-57997400D01*
X55362800Y-57937400D02*
X55362800Y-57997400D01*
X55362800Y-57997400D02*
X58022800Y-57997400D01*
X55439000Y-50486000D02*
X56769000Y-50486000D01*
X55439000Y-51816000D02*
X55439000Y-50486000D01*
X55439000Y-53086000D02*
X58099000Y-53086000D01*
X58099000Y-53086000D02*
X58099000Y-53146000D01*
X55439000Y-53086000D02*
X55439000Y-53146000D01*
X55439000Y-53146000D02*
X58099000Y-53146000D01*
X86863800Y-63039400D02*
X86863800Y-59439400D01*
X86852278Y-59400922D02*
G75*
G03*
X82413800Y-61239400I-1838478J-1838478D01*
G01*
X86852278Y-63077878D02*
G75*
G02*
X82413800Y-61239400I-1838478J1838478D01*
G01*
X83261400Y-45476400D02*
X83261400Y-46776400D01*
X82661400Y-46126400D02*
X83861400Y-46126400D01*
X89312400Y-45658400D02*
X89312400Y-46594400D01*
X89272400Y-45450400D02*
X89272400Y-46802400D01*
X89232400Y-45292400D02*
X89232400Y-46960400D01*
X89192400Y-45160400D02*
X89192400Y-47092400D01*
X89152400Y-45045400D02*
X89152400Y-47207400D01*
X89112400Y-44942400D02*
X89112400Y-47310400D01*
X89072400Y-44848400D02*
X89072400Y-47404400D01*
X89032400Y-44762400D02*
X89032400Y-47490400D01*
X88992400Y-44681400D02*
X88992400Y-47571400D01*
X88952400Y-44606400D02*
X88952400Y-47646400D01*
X88912400Y-44535400D02*
X88912400Y-47717400D01*
X88872400Y-44468400D02*
X88872400Y-47784400D01*
X88832400Y-44405400D02*
X88832400Y-47847400D01*
X88792400Y-44345400D02*
X88792400Y-47907400D01*
X88752400Y-44287400D02*
X88752400Y-47965400D01*
X88712400Y-44232400D02*
X88712400Y-48020400D01*
X88672400Y-44180400D02*
X88672400Y-48072400D01*
X88632400Y-44129400D02*
X88632400Y-48123400D01*
X88592400Y-44081400D02*
X88592400Y-48171400D01*
X88552400Y-44034400D02*
X88552400Y-48218400D01*
X88512400Y-43989400D02*
X88512400Y-48263400D01*
X88472400Y-43946400D02*
X88472400Y-48306400D01*
X88432400Y-43904400D02*
X88432400Y-48348400D01*
X88392400Y-43864400D02*
X88392400Y-48388400D01*
X88352400Y-43825400D02*
X88352400Y-48427400D01*
X88312400Y-47106400D02*
X88312400Y-48465400D01*
X88312400Y-43787400D02*
X88312400Y-45146400D01*
X88272400Y-47106400D02*
X88272400Y-48501400D01*
X88272400Y-43751400D02*
X88272400Y-45146400D01*
X88232400Y-47106400D02*
X88232400Y-48537400D01*
X88232400Y-43715400D02*
X88232400Y-45146400D01*
X88192400Y-47106400D02*
X88192400Y-48571400D01*
X88192400Y-43681400D02*
X88192400Y-45146400D01*
X88152400Y-47106400D02*
X88152400Y-48604400D01*
X88152400Y-43648400D02*
X88152400Y-45146400D01*
X88112400Y-47106400D02*
X88112400Y-48636400D01*
X88112400Y-43616400D02*
X88112400Y-45146400D01*
X88072400Y-47106400D02*
X88072400Y-48666400D01*
X88072400Y-43586400D02*
X88072400Y-45146400D01*
X88032400Y-47106400D02*
X88032400Y-48696400D01*
X88032400Y-43556400D02*
X88032400Y-45146400D01*
X87992400Y-47106400D02*
X87992400Y-48725400D01*
X87992400Y-43527400D02*
X87992400Y-45146400D01*
X87952400Y-47106400D02*
X87952400Y-48753400D01*
X87952400Y-43499400D02*
X87952400Y-45146400D01*
X87912400Y-47106400D02*
X87912400Y-48780400D01*
X87912400Y-43472400D02*
X87912400Y-45146400D01*
X87872400Y-47106400D02*
X87872400Y-48807400D01*
X87872400Y-43445400D02*
X87872400Y-45146400D01*
X87832400Y-47106400D02*
X87832400Y-48832400D01*
X87832400Y-43420400D02*
X87832400Y-45146400D01*
X87792400Y-47106400D02*
X87792400Y-48857400D01*
X87792400Y-43395400D02*
X87792400Y-45146400D01*
X87752400Y-47106400D02*
X87752400Y-48881400D01*
X87752400Y-43371400D02*
X87752400Y-45146400D01*
X87712400Y-47106400D02*
X87712400Y-48904400D01*
X87712400Y-43348400D02*
X87712400Y-45146400D01*
X87672400Y-47106400D02*
X87672400Y-48926400D01*
X87672400Y-43326400D02*
X87672400Y-45146400D01*
X87632400Y-47106400D02*
X87632400Y-48948400D01*
X87632400Y-43304400D02*
X87632400Y-45146400D01*
X87592400Y-47106400D02*
X87592400Y-48969400D01*
X87592400Y-43283400D02*
X87592400Y-45146400D01*
X87552400Y-47106400D02*
X87552400Y-48989400D01*
X87552400Y-43263400D02*
X87552400Y-45146400D01*
X87512400Y-47106400D02*
X87512400Y-49008400D01*
X87512400Y-43244400D02*
X87512400Y-45146400D01*
X87472400Y-47106400D02*
X87472400Y-49027400D01*
X87472400Y-43225400D02*
X87472400Y-45146400D01*
X87432400Y-47106400D02*
X87432400Y-49045400D01*
X87432400Y-43207400D02*
X87432400Y-45146400D01*
X87392400Y-47106400D02*
X87392400Y-49063400D01*
X87392400Y-43189400D02*
X87392400Y-45146400D01*
X87352400Y-47106400D02*
X87352400Y-49080400D01*
X87352400Y-43172400D02*
X87352400Y-45146400D01*
X87312400Y-47106400D02*
X87312400Y-49096400D01*
X87312400Y-43156400D02*
X87312400Y-45146400D01*
X87272400Y-47106400D02*
X87272400Y-49112400D01*
X87272400Y-43140400D02*
X87272400Y-45146400D01*
X87232400Y-47106400D02*
X87232400Y-49127400D01*
X87232400Y-43125400D02*
X87232400Y-45146400D01*
X87192400Y-47106400D02*
X87192400Y-49141400D01*
X87192400Y-43111400D02*
X87192400Y-45146400D01*
X87152400Y-47106400D02*
X87152400Y-49155400D01*
X87152400Y-43097400D02*
X87152400Y-45146400D01*
X87112400Y-47106400D02*
X87112400Y-49168400D01*
X87112400Y-43084400D02*
X87112400Y-45146400D01*
X87072400Y-47106400D02*
X87072400Y-49181400D01*
X87072400Y-43071400D02*
X87072400Y-45146400D01*
X87032400Y-47106400D02*
X87032400Y-49193400D01*
X87032400Y-43059400D02*
X87032400Y-45146400D01*
X86992400Y-47106400D02*
X86992400Y-49205400D01*
X86992400Y-43047400D02*
X86992400Y-45146400D01*
X86952400Y-47106400D02*
X86952400Y-49216400D01*
X86952400Y-43036400D02*
X86952400Y-45146400D01*
X86912400Y-47106400D02*
X86912400Y-49226400D01*
X86912400Y-43026400D02*
X86912400Y-45146400D01*
X86872400Y-47106400D02*
X86872400Y-49236400D01*
X86872400Y-43016400D02*
X86872400Y-45146400D01*
X86832400Y-47106400D02*
X86832400Y-49245400D01*
X86832400Y-43007400D02*
X86832400Y-45146400D01*
X86791400Y-47106400D02*
X86791400Y-49254400D01*
X86791400Y-42998400D02*
X86791400Y-45146400D01*
X86751400Y-47106400D02*
X86751400Y-49263400D01*
X86751400Y-42989400D02*
X86751400Y-45146400D01*
X86711400Y-47106400D02*
X86711400Y-49270400D01*
X86711400Y-42982400D02*
X86711400Y-45146400D01*
X86671400Y-47106400D02*
X86671400Y-49278400D01*
X86671400Y-42974400D02*
X86671400Y-45146400D01*
X86631400Y-47106400D02*
X86631400Y-49284400D01*
X86631400Y-42968400D02*
X86631400Y-45146400D01*
X86591400Y-47106400D02*
X86591400Y-49291400D01*
X86591400Y-42961400D02*
X86591400Y-45146400D01*
X86551400Y-47106400D02*
X86551400Y-49296400D01*
X86551400Y-42956400D02*
X86551400Y-45146400D01*
X86511400Y-47106400D02*
X86511400Y-49302400D01*
X86511400Y-42950400D02*
X86511400Y-45146400D01*
X86471400Y-47106400D02*
X86471400Y-49306400D01*
X86471400Y-42946400D02*
X86471400Y-45146400D01*
X86431400Y-47106400D02*
X86431400Y-49311400D01*
X86431400Y-42941400D02*
X86431400Y-45146400D01*
X86391400Y-47106400D02*
X86391400Y-49314400D01*
X86391400Y-42938400D02*
X86391400Y-45146400D01*
X86351400Y-42934400D02*
X86351400Y-49318400D01*
X86311400Y-42932400D02*
X86311400Y-49320400D01*
X86271400Y-42929400D02*
X86271400Y-49323400D01*
X86231400Y-42928400D02*
X86231400Y-49324400D01*
X86191400Y-42926400D02*
X86191400Y-49326400D01*
X86151400Y-42926400D02*
X86151400Y-49326400D01*
X86111400Y-42926400D02*
X86111400Y-49326400D01*
X89129220Y-47305536D02*
G75*
G03*
X89128882Y-44946400I-3017820J1179136D01*
G01*
X89129220Y-47305536D02*
G75*
G02*
X83093918Y-47306400I-3017820J1179136D01*
G01*
X89129220Y-44947264D02*
G75*
G03*
X83093918Y-44946400I-3017820J-1179136D01*
G01*
X75697400Y-46436600D02*
X75697400Y-46750600D01*
X75697400Y-44130600D02*
X75697400Y-44444600D01*
X70577400Y-46436600D02*
X70577400Y-46750600D01*
X70577400Y-44130600D02*
X70577400Y-44444600D01*
X70577400Y-46750600D02*
X75697400Y-46750600D01*
X70577400Y-44130600D02*
X75697400Y-44130600D01*
X82134400Y-52563400D02*
X87254400Y-52563400D01*
X82134400Y-55183400D02*
X87254400Y-55183400D01*
X82134400Y-52563400D02*
X82134400Y-52877400D01*
X82134400Y-54869400D02*
X82134400Y-55183400D01*
X87254400Y-52563400D02*
X87254400Y-52877400D01*
X87254400Y-54869400D02*
X87254400Y-55183400D01*
X80108000Y-49117800D02*
X80108000Y-52837800D01*
X78388000Y-49117800D02*
X78388000Y-52837800D01*
X78464200Y-57296600D02*
X78464200Y-61016600D01*
X80184200Y-57296600D02*
X80184200Y-61016600D01*
X68093800Y-46298400D02*
X68093800Y-50018400D01*
X66373800Y-46298400D02*
X66373800Y-50018400D01*
X62284400Y-52242000D02*
X62284400Y-55962000D01*
X64004400Y-52242000D02*
X64004400Y-55962000D01*
X75748200Y-51618200D02*
X75748200Y-51932200D01*
X75748200Y-49312200D02*
X75748200Y-49626200D01*
X70628200Y-51618200D02*
X70628200Y-51932200D01*
X70628200Y-49312200D02*
X70628200Y-49626200D01*
X70628200Y-51932200D02*
X75748200Y-51932200D01*
X70628200Y-49312200D02*
X75748200Y-49312200D01*
X66234000Y-55947800D02*
X66234000Y-57597800D01*
X76514000Y-55947800D02*
X66234000Y-55947800D01*
X76514000Y-61247800D02*
X76514000Y-55947800D01*
X66234000Y-61247800D02*
X76514000Y-61247800D01*
X66234000Y-59597800D02*
X66234000Y-61247800D01*
X66234000Y-57597800D02*
G75*
G02*
X66234000Y-59597800I0J-1000000D01*
G01*
D11*
X61279019Y-57372238D02*
X61231400Y-57467476D01*
X61136161Y-57562714D01*
X60993304Y-57705571D01*
X60945685Y-57800809D01*
X60945685Y-57896047D01*
X61183780Y-57848428D02*
X61136161Y-57943666D01*
X61040923Y-58038904D01*
X60850447Y-58086523D01*
X60517114Y-58086523D01*
X60326638Y-58038904D01*
X60231400Y-57943666D01*
X60183780Y-57848428D01*
X60183780Y-57657952D01*
X60231400Y-57562714D01*
X60326638Y-57467476D01*
X60517114Y-57419857D01*
X60850447Y-57419857D01*
X61040923Y-57467476D01*
X61136161Y-57562714D01*
X61183780Y-57657952D01*
X61183780Y-57848428D01*
X60279019Y-57038904D02*
X60231400Y-56991285D01*
X60183780Y-56896047D01*
X60183780Y-56657952D01*
X60231400Y-56562714D01*
X60279019Y-56515095D01*
X60374257Y-56467476D01*
X60469495Y-56467476D01*
X60612352Y-56515095D01*
X61183780Y-57086523D01*
X61183780Y-56467476D01*
X59790104Y-43251380D02*
X59790104Y-42251380D01*
X60028200Y-42251380D01*
X60171057Y-42299000D01*
X60266295Y-42394238D01*
X60313914Y-42489476D01*
X60361533Y-42679952D01*
X60361533Y-42822809D01*
X60313914Y-43013285D01*
X60266295Y-43108523D01*
X60171057Y-43203761D01*
X60028200Y-43251380D01*
X59790104Y-43251380D01*
X61313914Y-43251380D02*
X60742485Y-43251380D01*
X61028200Y-43251380D02*
X61028200Y-42251380D01*
X60932961Y-42394238D01*
X60837723Y-42489476D01*
X60742485Y-42537095D01*
X59713904Y-50490380D02*
X59713904Y-49490380D01*
X59952000Y-49490380D01*
X60094857Y-49538000D01*
X60190095Y-49633238D01*
X60237714Y-49728476D01*
X60285333Y-49918952D01*
X60285333Y-50061809D01*
X60237714Y-50252285D01*
X60190095Y-50347523D01*
X60094857Y-50442761D01*
X59952000Y-50490380D01*
X59713904Y-50490380D01*
X60666285Y-49585619D02*
X60713904Y-49538000D01*
X60809142Y-49490380D01*
X61047238Y-49490380D01*
X61142476Y-49538000D01*
X61190095Y-49585619D01*
X61237714Y-49680857D01*
X61237714Y-49776095D01*
X61190095Y-49918952D01*
X60618666Y-50490380D01*
X61237714Y-50490380D01*
X56435666Y-59403180D02*
X56435666Y-60117466D01*
X56388047Y-60260323D01*
X56292809Y-60355561D01*
X56149952Y-60403180D01*
X56054714Y-60403180D01*
X57435666Y-60403180D02*
X56864238Y-60403180D01*
X57149952Y-60403180D02*
X57149952Y-59403180D01*
X57054714Y-59546038D01*
X56959476Y-59641276D01*
X56864238Y-59688895D01*
D12*
X59293914Y-64897485D02*
X59293914Y-64516533D01*
X59484390Y-64707009D02*
X59103438Y-64707009D01*
X58984390Y-64040342D02*
X58984390Y-64278438D01*
X59222485Y-64302247D01*
X59198676Y-64278438D01*
X59174866Y-64230819D01*
X59174866Y-64111771D01*
X59198676Y-64064152D01*
X59222485Y-64040342D01*
X59270104Y-64016533D01*
X59389152Y-64016533D01*
X59436771Y-64040342D01*
X59460580Y-64064152D01*
X59484390Y-64111771D01*
X59484390Y-64230819D01*
X59460580Y-64278438D01*
X59436771Y-64302247D01*
X58984390Y-63492723D02*
X59484390Y-63326057D01*
X58984390Y-63159390D01*
X59484390Y-62921295D02*
X59460580Y-62968914D01*
X59436771Y-62992723D01*
X59389152Y-63016533D01*
X59246295Y-63016533D01*
X59198676Y-62992723D01*
X59174866Y-62968914D01*
X59151057Y-62921295D01*
X59151057Y-62849866D01*
X59174866Y-62802247D01*
X59198676Y-62778438D01*
X59246295Y-62754628D01*
X59389152Y-62754628D01*
X59436771Y-62778438D01*
X59460580Y-62802247D01*
X59484390Y-62849866D01*
X59484390Y-62921295D01*
X59484390Y-62468914D02*
X59460580Y-62516533D01*
X59412961Y-62540342D01*
X58984390Y-62540342D01*
X59151057Y-62349866D02*
X59151057Y-62159390D01*
X58984390Y-62278438D02*
X59412961Y-62278438D01*
X59460580Y-62254628D01*
X59484390Y-62207009D01*
X59484390Y-62159390D01*
X59484390Y-61611771D02*
X58984390Y-61611771D01*
X59151057Y-61373676D02*
X59484390Y-61373676D01*
X59198676Y-61373676D02*
X59174866Y-61349866D01*
X59151057Y-61302247D01*
X59151057Y-61230819D01*
X59174866Y-61183200D01*
X59222485Y-61159390D01*
X59484390Y-61159390D01*
X59151057Y-60921295D02*
X59651057Y-60921295D01*
X59174866Y-60921295D02*
X59151057Y-60873676D01*
X59151057Y-60778438D01*
X59174866Y-60730819D01*
X59198676Y-60707009D01*
X59246295Y-60683200D01*
X59389152Y-60683200D01*
X59436771Y-60707009D01*
X59460580Y-60730819D01*
X59484390Y-60778438D01*
X59484390Y-60873676D01*
X59460580Y-60921295D01*
X59151057Y-60254628D02*
X59484390Y-60254628D01*
X59151057Y-60468914D02*
X59412961Y-60468914D01*
X59460580Y-60445104D01*
X59484390Y-60397485D01*
X59484390Y-60326057D01*
X59460580Y-60278438D01*
X59436771Y-60254628D01*
X59151057Y-60087961D02*
X59151057Y-59897485D01*
X58984390Y-60016533D02*
X59412961Y-60016533D01*
X59460580Y-59992723D01*
X59484390Y-59945104D01*
X59484390Y-59897485D01*
D11*
X56359466Y-53789780D02*
X56359466Y-54504066D01*
X56311847Y-54646923D01*
X56216609Y-54742161D01*
X56073752Y-54789780D01*
X55978514Y-54789780D01*
X56788038Y-53885019D02*
X56835657Y-53837400D01*
X56930895Y-53789780D01*
X57168990Y-53789780D01*
X57264228Y-53837400D01*
X57311847Y-53885019D01*
X57359466Y-53980257D01*
X57359466Y-54075495D01*
X57311847Y-54218352D01*
X56740419Y-54789780D01*
X57359466Y-54789780D01*
D12*
X58857390Y-58628504D02*
X59262152Y-58628504D01*
X59309771Y-58604695D01*
X59333580Y-58580885D01*
X59357390Y-58533266D01*
X59357390Y-58438028D01*
X59333580Y-58390409D01*
X59309771Y-58366600D01*
X59262152Y-58342790D01*
X58857390Y-58342790D01*
X59357390Y-57866600D02*
X59357390Y-58104695D01*
X58857390Y-58104695D01*
X59214533Y-57723742D02*
X59214533Y-57485647D01*
X59357390Y-57771361D02*
X58857390Y-57604695D01*
X59357390Y-57438028D01*
X59357390Y-56890409D02*
X58857390Y-56890409D01*
X58857390Y-56699933D01*
X58881200Y-56652314D01*
X58905009Y-56628504D01*
X58952628Y-56604695D01*
X59024057Y-56604695D01*
X59071676Y-56628504D01*
X59095485Y-56652314D01*
X59119295Y-56699933D01*
X59119295Y-56890409D01*
X59357390Y-56390409D02*
X59024057Y-56390409D01*
X58857390Y-56390409D02*
X58881200Y-56414219D01*
X58905009Y-56390409D01*
X58881200Y-56366600D01*
X58857390Y-56390409D01*
X58905009Y-56390409D01*
X59024057Y-56152314D02*
X59357390Y-56152314D01*
X59071676Y-56152314D02*
X59047866Y-56128504D01*
X59024057Y-56080885D01*
X59024057Y-56009457D01*
X59047866Y-55961838D01*
X59095485Y-55938028D01*
X59357390Y-55938028D01*
X59357390Y-55057076D02*
X59357390Y-55342790D01*
X59357390Y-55199933D02*
X58857390Y-55199933D01*
X58928819Y-55247552D01*
X58976438Y-55295171D01*
X59000247Y-55342790D01*
X58857390Y-54628504D02*
X58857390Y-54723742D01*
X58881200Y-54771361D01*
X58905009Y-54795171D01*
X58976438Y-54842790D01*
X59071676Y-54866600D01*
X59262152Y-54866600D01*
X59309771Y-54842790D01*
X59333580Y-54818980D01*
X59357390Y-54771361D01*
X59357390Y-54676123D01*
X59333580Y-54628504D01*
X59309771Y-54604695D01*
X59262152Y-54580885D01*
X59143104Y-54580885D01*
X59095485Y-54604695D01*
X59071676Y-54628504D01*
X59047866Y-54676123D01*
X59047866Y-54771361D01*
X59071676Y-54818980D01*
X59095485Y-54842790D01*
X59143104Y-54866600D01*
D11*
X56435666Y-48938380D02*
X56435666Y-49652666D01*
X56388047Y-49795523D01*
X56292809Y-49890761D01*
X56149952Y-49938380D01*
X56054714Y-49938380D01*
X56816619Y-48938380D02*
X57435666Y-48938380D01*
X57102333Y-49319333D01*
X57245190Y-49319333D01*
X57340428Y-49366952D01*
X57388047Y-49414571D01*
X57435666Y-49509809D01*
X57435666Y-49747904D01*
X57388047Y-49843142D01*
X57340428Y-49890761D01*
X57245190Y-49938380D01*
X56959476Y-49938380D01*
X56864238Y-49890761D01*
X56816619Y-49843142D01*
D12*
X58654190Y-53589809D02*
X59154190Y-53423142D01*
X58654190Y-53256476D01*
X59154190Y-53089809D02*
X58820857Y-53089809D01*
X58654190Y-53089809D02*
X58678000Y-53113619D01*
X58701809Y-53089809D01*
X58678000Y-53066000D01*
X58654190Y-53089809D01*
X58701809Y-53089809D01*
X59154190Y-52637428D02*
X58654190Y-52637428D01*
X59130380Y-52637428D02*
X59154190Y-52685047D01*
X59154190Y-52780285D01*
X59130380Y-52827904D01*
X59106571Y-52851714D01*
X59058952Y-52875523D01*
X58916095Y-52875523D01*
X58868476Y-52851714D01*
X58844666Y-52827904D01*
X58820857Y-52780285D01*
X58820857Y-52685047D01*
X58844666Y-52637428D01*
X59130380Y-52208857D02*
X59154190Y-52256476D01*
X59154190Y-52351714D01*
X59130380Y-52399333D01*
X59082761Y-52423142D01*
X58892285Y-52423142D01*
X58844666Y-52399333D01*
X58820857Y-52351714D01*
X58820857Y-52256476D01*
X58844666Y-52208857D01*
X58892285Y-52185047D01*
X58939904Y-52185047D01*
X58987523Y-52423142D01*
X59154190Y-51899333D02*
X59130380Y-51946952D01*
X59106571Y-51970761D01*
X59058952Y-51994571D01*
X58916095Y-51994571D01*
X58868476Y-51970761D01*
X58844666Y-51946952D01*
X58820857Y-51899333D01*
X58820857Y-51827904D01*
X58844666Y-51780285D01*
X58868476Y-51756476D01*
X58916095Y-51732666D01*
X59058952Y-51732666D01*
X59106571Y-51756476D01*
X59130380Y-51780285D01*
X59154190Y-51827904D01*
X59154190Y-51899333D01*
X58654190Y-51042190D02*
X58654190Y-50946952D01*
X58678000Y-50899333D01*
X58725619Y-50851714D01*
X58820857Y-50827904D01*
X58987523Y-50827904D01*
X59082761Y-50851714D01*
X59130380Y-50899333D01*
X59154190Y-50946952D01*
X59154190Y-51042190D01*
X59130380Y-51089809D01*
X59082761Y-51137428D01*
X58987523Y-51161238D01*
X58820857Y-51161238D01*
X58725619Y-51137428D01*
X58678000Y-51089809D01*
X58654190Y-51042190D01*
X58820857Y-50399333D02*
X59154190Y-50399333D01*
X58820857Y-50613619D02*
X59082761Y-50613619D01*
X59130380Y-50589809D01*
X59154190Y-50542190D01*
X59154190Y-50470761D01*
X59130380Y-50423142D01*
X59106571Y-50399333D01*
X58820857Y-50232666D02*
X58820857Y-50042190D01*
X58654190Y-50161238D02*
X59082761Y-50161238D01*
X59130380Y-50137428D01*
X59154190Y-50089809D01*
X59154190Y-50042190D01*
D11*
X87161619Y-57245238D02*
X87114000Y-57340476D01*
X87018761Y-57435714D01*
X86875904Y-57578571D01*
X86828285Y-57673809D01*
X86828285Y-57769047D01*
X87066380Y-57721428D02*
X87018761Y-57816666D01*
X86923523Y-57911904D01*
X86733047Y-57959523D01*
X86399714Y-57959523D01*
X86209238Y-57911904D01*
X86114000Y-57816666D01*
X86066380Y-57721428D01*
X86066380Y-57530952D01*
X86114000Y-57435714D01*
X86209238Y-57340476D01*
X86399714Y-57292857D01*
X86733047Y-57292857D01*
X86923523Y-57340476D01*
X87018761Y-57435714D01*
X87066380Y-57530952D01*
X87066380Y-57721428D01*
X87066380Y-56340476D02*
X87066380Y-56911904D01*
X87066380Y-56626190D02*
X86066380Y-56626190D01*
X86209238Y-56721428D01*
X86304476Y-56816666D01*
X86352095Y-56911904D01*
X81240333Y-44959542D02*
X81192714Y-45007161D01*
X81049857Y-45054780D01*
X80954619Y-45054780D01*
X80811761Y-45007161D01*
X80716523Y-44911923D01*
X80668904Y-44816685D01*
X80621285Y-44626209D01*
X80621285Y-44483352D01*
X80668904Y-44292876D01*
X80716523Y-44197638D01*
X80811761Y-44102400D01*
X80954619Y-44054780D01*
X81049857Y-44054780D01*
X81192714Y-44102400D01*
X81240333Y-44150019D01*
X82192714Y-45054780D02*
X81621285Y-45054780D01*
X81907000Y-45054780D02*
X81907000Y-44054780D01*
X81811761Y-44197638D01*
X81716523Y-44292876D01*
X81621285Y-44340495D01*
X72970733Y-43237742D02*
X72923114Y-43285361D01*
X72780257Y-43332980D01*
X72685019Y-43332980D01*
X72542161Y-43285361D01*
X72446923Y-43190123D01*
X72399304Y-43094885D01*
X72351685Y-42904409D01*
X72351685Y-42761552D01*
X72399304Y-42571076D01*
X72446923Y-42475838D01*
X72542161Y-42380600D01*
X72685019Y-42332980D01*
X72780257Y-42332980D01*
X72923114Y-42380600D01*
X72970733Y-42428219D01*
X73304066Y-42332980D02*
X73923114Y-42332980D01*
X73589780Y-42713933D01*
X73732638Y-42713933D01*
X73827876Y-42761552D01*
X73875495Y-42809171D01*
X73923114Y-42904409D01*
X73923114Y-43142504D01*
X73875495Y-43237742D01*
X73827876Y-43285361D01*
X73732638Y-43332980D01*
X73446923Y-43332980D01*
X73351685Y-43285361D01*
X73304066Y-43237742D01*
X84527733Y-51670542D02*
X84480114Y-51718161D01*
X84337257Y-51765780D01*
X84242019Y-51765780D01*
X84099161Y-51718161D01*
X84003923Y-51622923D01*
X83956304Y-51527685D01*
X83908685Y-51337209D01*
X83908685Y-51194352D01*
X83956304Y-51003876D01*
X84003923Y-50908638D01*
X84099161Y-50813400D01*
X84242019Y-50765780D01*
X84337257Y-50765780D01*
X84480114Y-50813400D01*
X84527733Y-50861019D01*
X85384876Y-51099114D02*
X85384876Y-51765780D01*
X85146780Y-50718161D02*
X84908685Y-51432447D01*
X85527733Y-51432447D01*
X81560380Y-51144466D02*
X81084190Y-51477800D01*
X81560380Y-51715895D02*
X80560380Y-51715895D01*
X80560380Y-51334942D01*
X80608000Y-51239704D01*
X80655619Y-51192085D01*
X80750857Y-51144466D01*
X80893714Y-51144466D01*
X80988952Y-51192085D01*
X81036571Y-51239704D01*
X81084190Y-51334942D01*
X81084190Y-51715895D01*
X81560380Y-50192085D02*
X81560380Y-50763514D01*
X81560380Y-50477800D02*
X80560380Y-50477800D01*
X80703238Y-50573038D01*
X80798476Y-50668276D01*
X80846095Y-50763514D01*
X81636580Y-59323266D02*
X81160390Y-59656600D01*
X81636580Y-59894695D02*
X80636580Y-59894695D01*
X80636580Y-59513742D01*
X80684200Y-59418504D01*
X80731819Y-59370885D01*
X80827057Y-59323266D01*
X80969914Y-59323266D01*
X81065152Y-59370885D01*
X81112771Y-59418504D01*
X81160390Y-59513742D01*
X81160390Y-59894695D01*
X80731819Y-58942314D02*
X80684200Y-58894695D01*
X80636580Y-58799457D01*
X80636580Y-58561361D01*
X80684200Y-58466123D01*
X80731819Y-58418504D01*
X80827057Y-58370885D01*
X80922295Y-58370885D01*
X81065152Y-58418504D01*
X81636580Y-58989933D01*
X81636580Y-58370885D01*
X69546180Y-48325066D02*
X69069990Y-48658400D01*
X69546180Y-48896495D02*
X68546180Y-48896495D01*
X68546180Y-48515542D01*
X68593800Y-48420304D01*
X68641419Y-48372685D01*
X68736657Y-48325066D01*
X68879514Y-48325066D01*
X68974752Y-48372685D01*
X69022371Y-48420304D01*
X69069990Y-48515542D01*
X69069990Y-48896495D01*
X68546180Y-47991733D02*
X68546180Y-47372685D01*
X68927133Y-47706019D01*
X68927133Y-47563161D01*
X68974752Y-47467923D01*
X69022371Y-47420304D01*
X69117609Y-47372685D01*
X69355704Y-47372685D01*
X69450942Y-47420304D01*
X69498561Y-47467923D01*
X69546180Y-47563161D01*
X69546180Y-47848876D01*
X69498561Y-47944114D01*
X69450942Y-47991733D01*
X65456780Y-54268666D02*
X64980590Y-54602000D01*
X65456780Y-54840095D02*
X64456780Y-54840095D01*
X64456780Y-54459142D01*
X64504400Y-54363904D01*
X64552019Y-54316285D01*
X64647257Y-54268666D01*
X64790114Y-54268666D01*
X64885352Y-54316285D01*
X64932971Y-54363904D01*
X64980590Y-54459142D01*
X64980590Y-54840095D01*
X64790114Y-53411523D02*
X65456780Y-53411523D01*
X64409161Y-53649619D02*
X65123447Y-53887714D01*
X65123447Y-53268666D01*
X73021533Y-48419342D02*
X72973914Y-48466961D01*
X72831057Y-48514580D01*
X72735819Y-48514580D01*
X72592961Y-48466961D01*
X72497723Y-48371723D01*
X72450104Y-48276485D01*
X72402485Y-48086009D01*
X72402485Y-47943152D01*
X72450104Y-47752676D01*
X72497723Y-47657438D01*
X72592961Y-47562200D01*
X72735819Y-47514580D01*
X72831057Y-47514580D01*
X72973914Y-47562200D01*
X73021533Y-47609819D01*
X73402485Y-47609819D02*
X73450104Y-47562200D01*
X73545342Y-47514580D01*
X73783438Y-47514580D01*
X73878676Y-47562200D01*
X73926295Y-47609819D01*
X73973914Y-47705057D01*
X73973914Y-47800295D01*
X73926295Y-47943152D01*
X73354866Y-48514580D01*
X73973914Y-48514580D01*
X64686380Y-59359704D02*
X65495904Y-59359704D01*
X65591142Y-59312085D01*
X65638761Y-59264466D01*
X65686380Y-59169228D01*
X65686380Y-58978752D01*
X65638761Y-58883514D01*
X65591142Y-58835895D01*
X65495904Y-58788276D01*
X64686380Y-58788276D01*
X65686380Y-57788276D02*
X65686380Y-58359704D01*
X65686380Y-58073990D02*
X64686380Y-58073990D01*
X64829238Y-58169228D01*
X64924476Y-58264466D01*
X64972095Y-58359704D01*
M02*
